<svg width="30" height="30" viewBox="0 0 30 30" fill="none" xmlns="http://www.w3.org/2000/svg">
<path d="M28.3423 0.000999451H1.65574C0.741924 0.000999451 0 0.741453 0 1.65677V28.3437C0 29.2591 0.741924 30.0005 1.65574 30.0005H16.023V18.3829H12.1138V13.8548H16.023V10.5155C16.023 6.64138 18.3885 4.53066 21.8453 4.53066C23.5025 4.53066 24.9236 4.65465 25.338 4.70849V8.75802L22.9404 8.75901C21.0609 8.75901 20.6983 9.65259 20.6983 10.9631V13.8533H25.1824L24.5961 18.381H20.6978V29.999H28.3418C29.2566 29.999 29.999 29.2566 29.999 28.3437V1.65578C29.9985 0.741454 29.2571 0.000999451 28.3423 0.000999451Z" fill="#2B798D"/>
</svg>
