<svg width="17" height="17" viewBox="0 0 17 17" fill="none" xmlns="http://www.w3.org/2000/svg">
<path d="M7.23333 0.899994C3.74303 0.899994 0.899994 3.74303 0.899994 7.23333C0.899994 10.7236 3.74303 13.5667 7.23333 13.5667C8.75112 13.5667 10.145 13.0277 11.2374 12.133L15.0189 15.9144C15.0772 15.9752 15.1471 16.0238 15.2245 16.0572C15.3018 16.0906 15.3851 16.1083 15.4693 16.1091C15.5536 16.11 15.6372 16.094 15.7152 16.0622C15.7932 16.0303 15.8641 15.9832 15.9237 15.9237C15.9832 15.8641 16.0303 15.7932 16.0622 15.7152C16.094 15.6372 16.11 15.5536 16.1091 15.4693C16.1083 15.3851 16.0906 15.3018 16.0572 15.2245C16.0238 15.1471 15.9752 15.0772 15.9144 15.0189L12.133 11.2374C13.0277 10.145 13.5667 8.75112 13.5667 7.23333C13.5667 3.74303 10.7236 0.899994 7.23333 0.899994ZM7.23333 2.16666C10.0391 2.16666 12.3 4.42758 12.3 7.23333C12.3 10.0391 10.0391 12.3 7.23333 12.3C4.42758 12.3 2.16666 10.0391 2.16666 7.23333C2.16666 4.42758 4.42758 2.16666 7.23333 2.16666Z" fill="#2B798D"/>
</svg>
